<?xml version="1.0" encoding="utf-8"?>
<!-- Generator: Adobe Illustrator 26.1.0, SVG Export Plug-In . SVG Version: 6.00 Build 0)  -->
<svg version="1.1" id="Layer_1" xmlns="http://www.w3.org/2000/svg" xmlns:xlink="http://www.w3.org/1999/xlink" x="0px" y="0px"
	 viewBox="0 0 612 265.27" style="enable-background:new 0 0 612 265.27;" xml:space="preserve">
<style type="text/css">
	.st0{fill:#010101;}
</style>
<path class="st0" d="M410.91,141.52l-1.26-0.9l-85.04-86.08l-0.58-1l-0.69,1.02l-9.75,13.29l-20.63-21.37L276.09,29l0,0l-0.22-0.23
	l-0.39,1.08l-80.11,111.67h-17.35v3.29h247.1v-3.29H410.91z M276.49,31.67l16.68,17.28l19.52,20.22l-5.37,8.45l-44.83-7.38
	L276.49,31.67z M351.55,101.06l55.15,39.38h-21.25l-16.4-9.17l-10.27-17.74L351.55,101.06z M249.2,140.44l16.16-26.35l46.7,10.88
	l-16.76,15.46H249.2z M283.18,85.06l3.46,1.93l81.45,45.54l10.81,6.41l-112.67-26.26L283.18,85.06z M313.9,125.41l64.51,15.03
	h-80.81L313.9,125.41z M366.36,129.77l-66.63-37.25l24.2-36.02l22.62,39.07l0,0L366.36,129.77z M261.94,71.74l44.46,7.31
	l-8.06,12.68l-15.51-8.67l0,0l-0.2-0.11l-0.32,0.52l-34.28,26.6L261.94,71.74z M279.98,87.27l-32.63,53.17h-35.89L279.98,87.27z
	 M402.17,135.28l-52.52-37.51l-21.91-37.84L402.17,135.28z M273.5,35.3l-27.79,76.58l-36.8,28.56h-10.83L273.5,35.3z"/>
<g>
	<path class="st0" d="M90.85,181.88c0-3.39,0.64-6.39,1.93-9.01c1.29-2.62,3.14-4.68,5.56-6.17s5.31-2.25,8.68-2.25
		c3.67,0,6.69,0.77,9.06,2.3s4.14,3.61,5.3,6.23c1.16,2.63,1.74,5.59,1.74,8.9c0,2.21-0.31,4.35-0.93,6.44
		c-0.62,2.09-1.58,3.97-2.88,5.64s-2.97,2.99-5.01,3.97c-2.04,0.98-4.49,1.47-7.33,1.47c-3.45,0-6.37-0.71-8.77-2.14
		c-2.4-1.43-4.23-3.45-5.48-6.07C91.48,188.57,90.85,185.47,90.85,181.88z M96.24,181.04c0,3.12,0.4,5.85,1.2,8.19
		c0.8,2.34,2.03,4.16,3.68,5.46c1.65,1.3,3.75,1.96,6.28,1.96c2.28,0,4.19-0.59,5.73-1.77c1.54-1.18,2.69-2.82,3.46-4.93
		c0.77-2.1,1.15-4.53,1.15-7.28c0-3.17-0.41-5.91-1.22-8.22s-2.05-4.1-3.71-5.36c-1.65-1.26-3.75-1.89-6.28-1.89
		c-2.42,0-4.39,0.63-5.91,1.89c-1.51,1.26-2.63,2.94-3.33,5.03C96.59,176.21,96.24,178.52,96.24,181.04z M122.87,209.84h-5.71
		c-1.04,0-1.83-0.09-2.35-0.27c-0.53-0.18-0.97-0.49-1.33-0.93c-0.36-0.44-0.82-1.04-1.37-1.81c-0.71-1.01-1.35-1.91-1.91-2.69
		c-0.56-0.78-1.12-1.57-1.68-2.35c-0.56-0.78-1.2-1.67-1.91-2.67l5.29-0.72l5.31,7.08c0.19,0.25,0.47,0.54,0.84,0.89
		c0.37,0.34,0.73,0.56,1.07,0.65l3.75,1.07V209.84z"/>
	<path class="st0" d="M138.69,199.12c-1.46,0-2.79-0.29-4-0.86c-1.2-0.57-2.16-1.48-2.87-2.73c-0.71-1.24-1.06-2.87-1.06-4.87
		v-12.26c0-0.34-0.09-0.61-0.27-0.79s-0.42-0.33-0.71-0.44l-2.75-1.14v-1.65l8.39-1.28v15.57c0,1.44,0.12,2.68,0.37,3.72
		c0.25,1.03,0.75,1.82,1.51,2.37c0.76,0.54,1.9,0.82,3.43,0.82c1.41,0,2.62-0.22,3.62-0.65c1-0.43,1.79-1.01,2.36-1.72v-14.77
		c0-0.34-0.09-0.59-0.28-0.76s-0.44-0.31-0.75-0.43l-2.73-1.14v-1.65l8.41-1.33v20.69c0,0.34,0.09,0.6,0.28,0.77
		c0.19,0.17,0.43,0.32,0.72,0.44l2.75,1.12v1.68l-7.88,1.3h-0.12v-4.17h-0.26c-1.09,1.41-2.25,2.47-3.48,3.16
		C142.18,198.77,140.6,199.12,138.69,199.12z"/>
	<path class="st0" d="M158.8,198.63v-1.7l3.52-0.93c0.28-0.08,0.51-0.21,0.69-0.38c0.18-0.18,0.27-0.43,0.27-0.76v-16.24
		c0-0.34-0.09-0.6-0.28-0.78c-0.19-0.18-0.44-0.32-0.75-0.43l-3.4-1.14v-1.68l9.09-1.26v21.53c0,0.33,0.09,0.58,0.27,0.77
		c0.18,0.19,0.39,0.31,0.64,0.37l3.5,0.93v1.7H158.8z M165.19,168.64c-0.59,0-1.14-0.12-1.65-0.36c-0.51-0.24-0.92-0.59-1.23-1.05
		c-0.31-0.46-0.47-1-0.47-1.62c0-0.99,0.33-1.76,1-2.29c0.67-0.54,1.45-0.8,2.35-0.8c1.04,0,1.88,0.25,2.53,0.75
		c0.64,0.5,0.97,1.22,0.97,2.17c0,0.67-0.15,1.24-0.45,1.72c-0.3,0.48-0.72,0.85-1.25,1.11
		C166.45,168.51,165.85,168.64,165.19,168.64z"/>
	<path class="st0" d="M196.76,192.41h0.7v2.66c-1.13,0.95-2.51,1.87-4.12,2.76c-1.62,0.89-3.49,1.34-5.62,1.34
		c-2.38,0-4.43-0.55-6.15-1.64c-1.72-1.1-3.06-2.6-4-4.51c-0.94-1.91-1.41-4.09-1.41-6.55c0-1.97,0.37-3.78,1.11-5.43
		s1.74-3.08,2.99-4.29s2.68-2.15,4.28-2.81s3.25-0.99,4.98-0.99c1.23,0,2.3,0.12,3.22,0.35c0.92,0.23,1.7,0.5,2.34,0.8
		c0.64,0.3,1.16,0.55,1.55,0.73l-0.16,4.71h-1.05c-0.82-0.48-1.63-0.99-2.43-1.51c-0.8-0.53-1.67-0.97-2.61-1.34
		c-0.94-0.36-2.04-0.55-3.3-0.55c-0.56,0-1.21,0.14-1.96,0.43s-1.33,0.66-1.75,1.13c-0.34,0.39-0.68,0.88-1.02,1.48
		c-0.34,0.6-0.63,1.4-0.85,2.41c-0.23,1.01-0.34,2.31-0.34,3.91c0,3.19,0.7,5.67,2.1,7.45c1.4,1.78,3.43,2.67,6.1,2.67
		c1.06,0,2.05-0.18,2.97-0.55c0.92-0.36,1.76-0.8,2.5-1.3S196.21,192.81,196.76,192.41z"/>
	<path class="st0" d="M201.07,198.63v-1.7l2.82-0.93c0.29-0.09,0.52-0.23,0.69-0.4s0.24-0.42,0.24-0.75v-27.64
		c0-0.34-0.1-0.61-0.3-0.79c-0.2-0.19-0.44-0.33-0.7-0.44l-2.96-1.33V163l8.62-0.42v23.56l9.88-9.58l-2.59-1.33v-1.68h10.16v1.68
		l-2.87,1c-0.33,0.11-0.64,0.26-0.94,0.47c-0.3,0.2-0.59,0.44-0.87,0.7l-6.38,5.83l8.44,11.7c0.17,0.23,0.4,0.45,0.7,0.65
		c0.29,0.2,0.59,0.36,0.89,0.47l2.42,0.89v1.7h-10.32v-1.7l1.56-1.03l-6.97-9.55l-3.17,1.26v7.25c0,0.33,0.09,0.57,0.27,0.75
		c0.18,0.17,0.39,0.3,0.64,0.4l2.38,0.93v1.7H201.07z"/>
	<path class="st0" d="M231.9,197.3l-0.14-8.92h2.75l0.98,4.82c0.05,0.22,0.19,0.44,0.43,0.65s0.45,0.39,0.62,0.51
		c0.59,0.37,1.23,0.73,1.93,1.07c0.7,0.34,1.44,0.62,2.23,0.83c0.78,0.21,1.59,0.31,2.41,0.31c2.42,0,4.33-0.53,5.71-1.58
		c1.38-1.06,2.07-2.5,2.07-4.33c0-1.38-0.41-2.52-1.23-3.43c-0.82-0.9-1.93-1.64-3.31-2.21c-1.34-0.56-2.65-1.04-3.95-1.43
		c-1.3-0.4-2.57-0.85-3.81-1.36c-1.88-0.78-3.36-1.87-4.43-3.29c-1.07-1.41-1.61-3.12-1.61-5.13c0-1.8,0.5-3.41,1.5-4.81
		c1-1.41,2.36-2.52,4.07-3.33c1.71-0.82,3.62-1.22,5.73-1.22c1.27,0,2.49,0.08,3.65,0.23c1.16,0.16,2.26,0.35,3.31,0.58
		c1.05,0.23,2.05,0.47,2.99,0.7v8.55h-2.73l-0.93-4.57c-0.05-0.22-0.19-0.43-0.42-0.64c-0.23-0.21-0.44-0.38-0.63-0.5
		c-0.36-0.26-0.8-0.51-1.32-0.73c-0.52-0.23-1.1-0.41-1.74-0.55c-0.64-0.14-1.32-0.21-2.05-0.21c-2.21,0-3.92,0.47-5.14,1.4
		c-1.22,0.93-1.83,2.07-1.83,3.42c0,1.21,0.33,2.34,0.99,3.39c0.66,1.05,1.93,1.92,3.81,2.62c1.24,0.45,2.46,0.88,3.66,1.28
		c1.2,0.4,2.5,0.9,3.91,1.49c1.04,0.43,2.04,1,2.99,1.7c0.96,0.7,1.74,1.6,2.35,2.69c0.61,1.09,0.92,2.46,0.92,4.09
		c0,1.69-0.44,3.31-1.33,4.83c-0.89,1.53-2.28,2.78-4.19,3.74s-4.41,1.44-7.5,1.44c-1.07,0-2.21-0.11-3.4-0.33s-2.42-0.49-3.66-0.82
		S233.11,197.63,231.9,197.3z"/>
	<path class="st0" d="M271.3,199.12c-1.46,0-2.79-0.29-4-0.86c-1.2-0.57-2.16-1.48-2.87-2.73c-0.71-1.24-1.06-2.87-1.06-4.87v-12.26
		c0-0.34-0.09-0.61-0.27-0.79s-0.42-0.33-0.71-0.44l-2.75-1.14v-1.65l8.39-1.28v15.57c0,1.44,0.12,2.68,0.37,3.72
		c0.25,1.03,0.75,1.82,1.51,2.37c0.76,0.54,1.9,0.82,3.43,0.82c1.41,0,2.62-0.22,3.62-0.65c1-0.43,1.79-1.01,2.36-1.72v-14.77
		c0-0.34-0.09-0.59-0.28-0.76s-0.44-0.31-0.75-0.43l-2.73-1.14v-1.65l8.41-1.33v20.69c0,0.34,0.09,0.6,0.28,0.77
		c0.19,0.17,0.43,0.32,0.72,0.44l2.75,1.12v1.68l-7.88,1.3h-0.12v-4.17h-0.26c-1.09,1.41-2.25,2.47-3.48,3.16
		C274.78,198.77,273.21,199.12,271.3,199.12z"/>
	<path class="st0" d="M307.72,198.63v-1.7l2.33-0.91c0.26-0.11,0.49-0.25,0.67-0.43c0.18-0.18,0.27-0.45,0.27-0.8v-11.42
		c0-1.46-0.13-2.71-0.38-3.74s-0.75-1.82-1.49-2.37c-0.74-0.54-1.85-0.82-3.32-0.82c-0.99,0-2.04,0.17-3.13,0.5s-2,0.97-2.71,1.9
		v16.01c0,0.33,0.09,0.57,0.28,0.73c0.19,0.16,0.4,0.3,0.65,0.41l2.17,0.93v1.7h-11.49v-1.7l2.84-0.91c0.25-0.08,0.46-0.21,0.64-0.4
		c0.18-0.19,0.27-0.44,0.27-0.77v-16.45c0-0.34-0.09-0.6-0.28-0.78s-0.43-0.32-0.72-0.43l-2.75-1.14v-1.68l7.97-1.28v3.98h0.3
		c1.35-1.79,2.7-2.93,4.04-3.43c1.34-0.5,2.66-0.75,3.95-0.75c1.09,0,2.12,0.16,3.09,0.47s1.83,0.83,2.57,1.55
		c0.75,0.72,1.32,1.71,1.72,2.95l0.42,0.33v16.59c0,0.37,0.09,0.64,0.28,0.79s0.4,0.3,0.65,0.42l2.12,0.93v1.7H307.72z
		 M323.33,198.63v-1.7l2.4-0.91c0.26-0.11,0.48-0.25,0.66-0.43c0.18-0.18,0.27-0.45,0.27-0.8v-11.42c0-1.46-0.13-2.71-0.38-3.74
		s-0.76-1.82-1.5-2.37c-0.75-0.54-1.87-0.82-3.36-0.82c-0.96,0-2.03,0.19-3.21,0.57c-1.17,0.38-2.12,1.12-2.83,2.2l-0.63-1.09
		c1.18-1.65,2.28-2.83,3.29-3.57s1.96-1.19,2.85-1.38s1.74-0.28,2.55-0.28c1.43,0,2.74,0.29,3.93,0.87c1.19,0.58,2.14,1.5,2.85,2.74
		c0.71,1.24,1.07,2.86,1.07,4.85v13.42c0,0.36,0.09,0.62,0.28,0.8c0.19,0.18,0.4,0.31,0.65,0.41l2.52,0.93v1.7H323.33z"/>
	<path class="st0" d="M354.74,198.63v-1.7l2.33-0.91c0.26-0.11,0.49-0.25,0.66-0.43c0.18-0.18,0.27-0.45,0.27-0.8v-11.42
		c0-1.46-0.13-2.71-0.38-3.74c-0.26-1.03-0.75-1.82-1.49-2.37c-0.74-0.54-1.84-0.82-3.32-0.82c-0.99,0-2.04,0.17-3.13,0.5
		c-1.1,0.33-2,0.97-2.71,1.9v16.01c0,0.33,0.09,0.57,0.28,0.73s0.4,0.3,0.65,0.41l2.17,0.93v1.7h-11.49v-1.7l2.84-0.91
		c0.25-0.08,0.46-0.21,0.64-0.4s0.27-0.44,0.27-0.77v-16.45c0-0.34-0.09-0.6-0.28-0.78c-0.19-0.18-0.43-0.32-0.72-0.43l-2.75-1.14
		v-1.68l7.97-1.28v3.98h0.3c1.35-1.79,2.7-2.93,4.04-3.43c1.34-0.5,2.66-0.75,3.95-0.75c1.09,0,2.12,0.16,3.09,0.47
		s1.83,0.83,2.58,1.55c0.75,0.72,1.32,1.71,1.72,2.95l0.42,0.33v16.59c0,0.37,0.09,0.64,0.28,0.79c0.19,0.16,0.4,0.3,0.65,0.42
		l2.12,0.93v1.7H354.74z M370.35,198.63v-1.7l2.4-0.91c0.26-0.11,0.49-0.25,0.66-0.43s0.27-0.45,0.27-0.8v-11.42
		c0-1.46-0.13-2.71-0.38-3.74c-0.26-1.03-0.76-1.82-1.5-2.37c-0.75-0.54-1.86-0.82-3.36-0.82c-0.96,0-2.03,0.19-3.2,0.57
		c-1.17,0.38-2.12,1.12-2.83,2.2l-0.63-1.09c1.18-1.65,2.28-2.83,3.29-3.57s1.96-1.19,2.85-1.38c0.89-0.19,1.74-0.28,2.55-0.28
		c1.43,0,2.74,0.29,3.93,0.87c1.19,0.58,2.14,1.5,2.85,2.74c0.71,1.24,1.07,2.86,1.07,4.85v13.42c0,0.36,0.09,0.62,0.28,0.8
		s0.4,0.31,0.65,0.41l2.52,0.93v1.7H370.35z"/>
	<path class="st0" d="M385.45,198.63v-1.7l3.52-0.93c0.28-0.08,0.51-0.21,0.69-0.38s0.27-0.43,0.27-0.76v-16.24
		c0-0.34-0.09-0.6-0.28-0.78c-0.19-0.18-0.44-0.32-0.75-0.43l-3.4-1.14v-1.68l9.09-1.26v21.53c0,0.33,0.09,0.58,0.27,0.77
		c0.18,0.19,0.39,0.31,0.64,0.37l3.5,0.93v1.7H385.45z M391.84,168.64c-0.59,0-1.14-0.12-1.65-0.36c-0.51-0.24-0.92-0.59-1.24-1.05
		s-0.47-1-0.47-1.62c0-0.99,0.33-1.76,1-2.29s1.45-0.8,2.35-0.8c1.04,0,1.88,0.25,2.53,0.75c0.64,0.5,0.97,1.22,0.97,2.17
		c0,0.67-0.15,1.24-0.45,1.72c-0.3,0.48-0.72,0.85-1.25,1.11C393.1,168.51,392.5,168.64,391.84,168.64z"/>
	<path class="st0" d="M419.21,173.61l-0.16,2.66h-8.69v16.29c0,0.73,0.28,1.32,0.84,1.76c0.56,0.44,1.21,0.77,1.95,0.97
		c0.74,0.2,1.36,0.3,1.88,0.3c0.54,0,1.18-0.09,1.91-0.28s1.25-0.36,1.56-0.51h0.79v1.91c-0.28,0.19-0.78,0.47-1.51,0.84
		c-0.73,0.37-1.56,0.72-2.5,1.04c-0.94,0.32-1.88,0.48-2.83,0.48c-1.2,0-2.31-0.2-3.33-0.59s-1.85-0.96-2.47-1.7
		c-0.62-0.74-0.93-1.63-0.93-2.67v-17.83h-4.05v-2.14c0.88-0.14,1.65-0.29,2.31-0.46s1.17-0.49,1.56-0.97
		c0.39-0.48,0.61-1.26,0.68-2.33l0.23-3.43l3.94-0.75v7.41H419.21z"/>
	<path class="st0" d="M424.57,195.72c0-0.99,0.34-1.83,1.03-2.52c0.68-0.68,1.52-1.02,2.52-1.02s1.83,0.34,2.52,1.02
		c0.68,0.68,1.03,1.52,1.03,2.52c0,1-0.34,1.83-1.03,2.49c-0.68,0.67-1.52,1-2.52,1s-1.83-0.33-2.52-1
		C424.92,197.54,424.57,196.71,424.57,195.72z"/>
	<path class="st0" d="M437.92,198.63v-1.7l2.84-0.93c0.28-0.08,0.5-0.21,0.68-0.38s0.26-0.43,0.26-0.76v-16.45
		c0-0.34-0.09-0.6-0.28-0.78c-0.19-0.18-0.43-0.33-0.75-0.46l-2.73-1.14v-1.65l7.97-1.28v3.98h0.3c0.93-1.21,1.86-2.11,2.77-2.7
		c0.92-0.59,1.83-0.98,2.73-1.18c0.9-0.19,1.79-0.29,2.68-0.29c1.48,0,2.82,0.29,4.03,0.87c1.21,0.58,2.18,1.5,2.9,2.74
		c0.72,1.24,1.08,2.86,1.08,4.85v13.4c0,0.37,0.09,0.65,0.27,0.84s0.4,0.32,0.66,0.4l2.52,0.93v1.7h-11.44v-1.7l2.38-0.93
		c0.28-0.11,0.51-0.25,0.7-0.42s0.28-0.44,0.28-0.82v-11.39c0-1.46-0.13-2.71-0.4-3.74c-0.26-1.03-0.78-1.82-1.56-2.37
		c-0.78-0.54-1.93-0.82-3.47-0.82c-1.01,0-2.08,0.17-3.2,0.5s-2.06,0.97-2.81,1.9v16.01c0,0.33,0.1,0.58,0.29,0.76
		s0.42,0.31,0.66,0.38l2.17,0.93v1.7H437.92z"/>
	<path class="st0" d="M481.78,199.17c-2.25,0-4.29-0.49-6.11-1.48s-3.25-2.44-4.31-4.37s-1.58-4.29-1.58-7.08
		c0-2.5,0.51-4.76,1.53-6.77s2.43-3.61,4.24-4.79c1.81-1.18,3.91-1.77,6.3-1.77c2.21,0,4.09,0.46,5.65,1.38
		c1.56,0.92,2.76,2.13,3.59,3.63s1.25,3.15,1.25,4.92c0,0.2-0.01,0.46-0.02,0.78c-0.02,0.32-0.04,0.63-0.06,0.94
		c-0.02,0.31-0.07,0.58-0.13,0.79h-17.85l0.14-2.42h12.96c0-1.52-0.19-2.84-0.57-3.96c-0.38-1.12-0.99-1.98-1.84-2.6
		c-0.85-0.61-1.98-0.92-3.39-0.92c-1.37,0-2.5,0.29-3.4,0.87c-0.9,0.58-1.61,1.36-2.13,2.32c-0.52,0.96-0.89,2.01-1.11,3.16
		c-0.22,1.14-0.33,2.26-0.33,3.37c0,1.97,0.28,3.75,0.85,5.34c0.57,1.58,1.49,2.84,2.78,3.76c1.29,0.92,3.02,1.39,5.2,1.39
		c1.2,0,2.31-0.17,3.36-0.52c1.04-0.35,1.97-0.76,2.8-1.25c0.82-0.48,1.5-0.92,2.03-1.33h0.65v2.68c-1.17,0.95-2.67,1.84-4.52,2.68
		S483.91,199.17,481.78,199.17z"/>
	<path class="st0" d="M513.63,173.61l-0.16,2.66h-8.69v16.29c0,0.73,0.28,1.32,0.84,1.76c0.56,0.44,1.21,0.77,1.95,0.97
		c0.74,0.2,1.36,0.3,1.88,0.3c0.54,0,1.18-0.09,1.91-0.28s1.25-0.36,1.56-0.51h0.79v1.91c-0.28,0.19-0.78,0.47-1.51,0.84
		c-0.73,0.37-1.56,0.72-2.5,1.04c-0.94,0.32-1.88,0.48-2.83,0.48c-1.2,0-2.31-0.2-3.33-0.59s-1.85-0.96-2.47-1.7
		c-0.62-0.74-0.93-1.63-0.93-2.67v-17.83h-4.05v-2.14c0.88-0.14,1.65-0.29,2.31-0.46s1.17-0.49,1.56-0.97
		c0.39-0.48,0.61-1.26,0.68-2.33l0.23-3.43l3.94-0.75v7.41H513.63z"/>
</g>
</svg>
